<svg width="42" height="43" viewBox="0 0 42 43" fill="none" xmlns="http://www.w3.org/2000/svg">
    <path d="M21.3658 24.9998C20.9783 24.9998 19.5 24.4332 19.5 24.1664C19.5 16.3257 19.7705 10.9809 15.6609 10.9809C11.4843 10.9809 11.5366 16.1657 11.5366 24.5831C11.5366 24.8499 10.6558 24.9998 10.2683 24.9998C9.88077 24.9998 9 24.4332 9 24.1664C9 15.0949 10.2978 9.99976 15.6561 9.99976C21.5119 9.99976 21.9999 16.9626 21.9999 24.1664C22.0047 24.4418 21.7533 24.9998 21.3658 24.9998Z" fill="black"/>
    <path d="M15.3062 23.1836H18.4913C18.4955 23.7937 18.8648 24.2274 19.2208 24.4644C19.5836 24.7059 20.0258 24.8206 20.4621 24.8206C20.903 24.8206 21.3452 24.7022 21.7059 24.4605C22.0563 24.2257 22.4287 23.7936 22.4329 23.1836H29.4545L26.6874 42H15.3062H3.92493L1.15781 23.1836H8.17935C8.18355 23.7937 8.55285 24.2274 8.90887 24.4644C9.27164 24.7059 9.71378 24.8206 10.1502 24.8206C10.591 24.8206 11.0332 24.7022 11.394 24.4605C11.7443 24.2257 12.1167 23.7936 12.121 23.1836H15.3062Z" stroke="black" stroke-width="2"/>
</svg> 