<?xml version="1.0" encoding="iso-8859-1"?>
<!-- Generator: Adobe Illustrator 19.0.0, SVG Export Plug-In . SVG Version: 6.00 Build 0)  -->
<svg version="1.1" id="Capa_1" xmlns="http://www.w3.org/2000/svg" xmlns:xlink="http://www.w3.org/1999/xlink" x="0px" y="0px"
	 viewBox="0 0 512 512" style="enable-background:new 0 0 512 512;" xml:space="preserve">
<path style="fill:#FEC9A3;" d="M204.8,414.976c0,48.87,39.62,88.491,88.491,88.491h133.376V285.952
	c0.009-19.388-6.579-38.195-18.688-53.333L324.267,128H204.8V414.976z"/>
<path style="fill:#4398D1;" d="M119.467,8.533h170.667c18.85,0,34.133,15.283,34.133,34.133v307.2
	c0,18.85-15.283,34.133-34.133,34.133H119.467c-18.85,0-34.133-15.283-34.133-34.133v-307.2
	C85.333,23.817,100.617,8.533,119.467,8.533z"/>
<path style="fill:#3E8CC7;" d="M85.333,338.944v10.923c0,18.85,15.283,34.133,34.133,34.133h170.667
	c18.85,0,34.133-15.283,34.133-34.133V98.389C273.51,202.854,189.457,287.479,85.333,338.944z"/>
<rect x="204.8" y="384" style="fill:#F7BB8F;" width="93.867" height="25.6"/>
<rect x="230.4" y="8.533" style="fill:#87CED9;" width="42.667" height="375.467"/>
<g>
	<rect x="119.467" y="42.667" style="fill:#126099;" width="17.067" height="110.933"/>
	<rect x="162.133" y="42.667" style="fill:#126099;" width="17.067" height="68.267"/>
</g>
<rect x="128" y="290.133" style="fill:#D9D9D9;" width="51.2" height="51.2"/>
<path style="fill:#FEC9A3;" d="M358.4,324.267L243.712,202.411c-11.75-12.433-31.351-12.996-43.793-1.246
	c-0.196,0.188-0.393,0.375-0.58,0.563l0,0c-11.358,11.392-12.134,29.577-1.792,41.899l75.52,89.173v29.525
	c-0.009,43.853,27.204,83.098,68.267,98.475H358.4V324.267z"/>
<path d="M290.133,0H119.467C95.906,0,76.8,19.106,76.8,42.667v307.2c0,23.561,19.106,42.667,42.667,42.667h76.8v22.443
	c0.051,53.564,43.46,96.973,97.024,97.024h133.376c4.71,0,8.533-3.823,8.533-8.533V285.952
	c-0.034-21.299-7.287-41.967-20.565-58.624L332.8,125.013V42.667C332.8,19.106,313.694,0,290.133,0z M290.133,17.067
	c14.14,0,25.6,11.46,25.6,25.6v223.829L281.6,230.4V17.067H290.133z M264.533,212.053l-14.592-15.787
	c-3.209-3.183-6.929-5.811-11.008-7.765V17.067h25.6V212.053z M93.867,349.867v-307.2c0-14.14,11.46-25.6,25.6-25.6h102.4v167.083
	l0,0c-10.701-0.35-21.052,3.831-28.501,11.52c-14.421,14.558-15.386,37.709-2.219,53.419l30.72,36.437v89.941h-102.4
	C105.327,375.467,93.867,364.006,93.867,349.867z M265.387,375.467h-26.453v-69.803l25.6,30.293v26.368
	C264.559,366.72,264.841,371.106,265.387,375.467z M401.067,237.995c10.974,13.585,16.998,30.498,17.067,47.957v208.981H293.291
	c-44.143-0.051-79.906-35.814-79.957-79.957v-22.443H268.8c9.694,35.063,35.524,63.403,69.547,76.288l5.973-16.043
	c-37.658-14.208-62.618-50.202-62.72-90.453V332.8c0-2.031-0.725-4.002-2.048-5.547l-75.435-89.173
	c-7.492-8.9-6.938-22.05,1.28-30.293c4.284-4.463,10.291-6.861,16.469-6.571c6.076,0.043,11.853,2.603,15.957,7.083l114.347,121.856
	l12.459-11.776L332.8,284.245V152.32L401.067,237.995z"/>
<rect x="119.467" y="42.667" width="17.067" height="110.933"/>
<rect x="162.133" y="42.667" width="17.067" height="68.267"/>
<path d="M179.2,281.6H128c-4.71,0-8.533,3.823-8.533,8.533v51.2c0,4.71,3.823,8.533,8.533,8.533h51.2
	c4.71,0,8.533-3.823,8.533-8.533v-51.2C187.733,285.423,183.91,281.6,179.2,281.6z M170.667,332.8h-34.133v-34.133h34.133V332.8z"/>
<g>
</g>
<g>
</g>
<g>
</g>
<g>
</g>
<g>
</g>
<g>
</g>
<g>
</g>
<g>
</g>
<g>
</g>
<g>
</g>
<g>
</g>
<g>
</g>
<g>
</g>
<g>
</g>
<g>
</g>
</svg>
