<svg width="18" height="20" viewBox="0 0 18 20" fill="none" xmlns="http://www.w3.org/2000/svg">
<path d="M14.1601 6.7398V5.6198C14.1601 2.7798 11.8401 0.479797 9.00014 0.479797C6.16014 0.479797 3.84014 2.7998 3.84014 5.6398V6.7598C2.02014 7.0998 0.640137 8.6998 0.640137 10.6198V15.8598C0.640137 17.8998 2.30014 19.5598 4.34014 19.5598H13.6401C15.6801 19.5598 17.3401 17.8998 17.3401 15.8598V10.5998C17.3601 8.6798 15.9601 7.0798 14.1601 6.7398ZM9.00014 1.5798C11.2401 1.5798 13.0601 3.3998 13.0601 5.6398V6.6798H4.94014V5.6398C4.94014 3.3998 6.76014 1.5798 9.00014 1.5798ZM16.2601 15.8198C16.2601 17.2598 15.1001 18.4198 13.6601 18.4198H4.34014C2.90014 18.4198 1.74014 17.2598 1.74014 15.8198V10.5998C1.74014 9.0398 3.00014 7.7798 4.56014 7.7798H13.4201C14.9801 7.7798 16.2401 9.0398 16.2401 10.5998V15.8198H16.2601Z" fill="#3F3F3F"/>
<path d="M9.00019 11.9C8.5602 11.9 8.2002 12.26 8.2002 12.7V14.02C8.2002 14.24 8.3002 14.46 8.4602 14.6V15.42C8.4602 15.72 8.70019 15.98 9.02019 15.98C9.34019 15.98 9.5802 15.74 9.5802 15.42V14.6C9.74019 14.46 9.84019 14.24 9.84019 14.02V12.7C9.80019 12.26 9.44019 11.9 9.00019 11.9Z" fill="#3F3F3F"/>
</svg>
