<svg width="18" height="18" viewBox="0 0 18 18" fill="none" xmlns="http://www.w3.org/2000/svg">
<circle cx="9" cy="9" r="9" fill="#B92227"/>
<path d="M8.75611 11.556C8.68678 11.556 8.62611 11.53 8.57411 11.478C8.52211 11.426 8.49611 11.3653 8.49611 11.296V10.88C8.53944 10.4727 8.66511 10.1173 8.87311 9.814C9.08978 9.502 9.39311 9.14667 9.78311 8.748C10.0691 8.47067 10.2858 8.23233 10.4331 8.033C10.5804 7.83367 10.6671 7.63 10.6931 7.422C10.7278 7.06667 10.6108 6.785 10.3421 6.577C10.0734 6.36033 9.74844 6.252 9.36711 6.252C8.51778 6.252 8.00644 6.67233 7.83311 7.513C7.77244 7.71233 7.64678 7.812 7.45611 7.812H6.35111C6.26444 7.812 6.19511 7.786 6.14311 7.734C6.09111 7.67333 6.06511 7.59533 6.06511 7.5C6.08244 7.02333 6.22544 6.577 6.49411 6.161C6.76278 5.745 7.15278 5.41133 7.66411 5.16C8.17544 4.9 8.77344 4.77 9.45811 4.77C10.1774 4.77 10.7668 4.887 11.2261 5.121C11.6941 5.34633 12.0321 5.63667 12.2401 5.992C12.4568 6.34733 12.5651 6.71567 12.5651 7.097C12.5651 7.539 12.4654 7.92033 12.2661 8.241C12.0754 8.553 11.7851 8.917 11.3951 9.333C11.1178 9.63633 10.9011 9.89633 10.7451 10.113C10.5978 10.321 10.4981 10.5463 10.4461 10.789C10.4114 11.0057 10.3898 11.153 10.3811 11.231C10.3118 11.4477 10.1948 11.556 10.0301 11.556H8.75611ZM8.71711 14C8.63044 14 8.55678 13.9697 8.49611 13.909C8.43544 13.8483 8.40511 13.7747 8.40511 13.688V12.557C8.40511 12.4703 8.43544 12.3967 8.49611 12.336C8.55678 12.2667 8.63044 12.232 8.71711 12.232H9.97811C10.0734 12.232 10.1514 12.2623 10.2121 12.323C10.2728 12.3837 10.3031 12.4617 10.3031 12.557V13.688C10.3031 13.7747 10.2728 13.8483 10.2121 13.909C10.1514 13.9697 10.0734 14 9.97811 14H8.71711Z" fill="white"/>
</svg>
